<svg width="25" height="27" viewBox="0 0 25 27" fill="none" xmlns="http://www.w3.org/2000/svg">
<path d="M12.5 26.221C13.8791 26.221 15.0075 25.039 15.0075 23.5943H9.99248C9.99248 25.039 11.1209 26.221 12.5 26.221ZM20.0226 18.3409V11.7742C20.0226 7.74228 17.9789 4.36699 14.3806 3.47392V2.58085C14.3806 1.49078 13.5406 0.61084 12.5 0.61084C11.4594 0.61084 10.6194 1.49078 10.6194 2.58085V3.47392C7.0336 4.36699 4.97743 7.72915 4.97743 11.7742V18.3409L2.46991 20.9676V22.281H22.5301V20.9676L20.0226 18.3409ZM17.515 19.6543H7.48496V11.7742C7.48496 8.51715 9.37814 5.8642 12.5 5.8642C15.6219 5.8642 17.515 8.51715 17.515 11.7742V19.6543ZM6.95838 2.68592L5.1655 0.807841C2.15647 3.21125 0.175527 6.91487 0 11.1176H2.50752C2.59633 9.452 3.04266 7.82887 3.81328 6.36903C4.58389 4.90919 5.65894 3.65024 6.95838 2.68592ZM22.4925 11.1176H25C24.8119 6.91487 22.831 3.21125 19.8345 0.807841L18.0542 2.68592C19.348 3.65499 20.4183 4.91533 21.1863 6.37439C21.9544 7.83344 22.4007 9.45417 22.4925 11.1176Z" fill="#252525"/>
</svg>
