<svg width="25" height="27" viewBox="0 0 25 27" fill="none" xmlns="http://www.w3.org/2000/svg">
<path d="M20 21.0989C20.663 21.0989 21.2989 21.3688 21.7678 21.8491C22.2366 22.3293 22.5 22.9807 22.5 23.66C22.5 24.3392 22.2366 24.9906 21.7678 25.4709C21.2989 25.9512 20.663 26.221 20 26.221C19.337 26.221 18.7011 25.9512 18.2322 25.4709C17.7634 24.9906 17.5 24.3392 17.5 23.66C17.5 22.2386 18.6125 21.0989 20 21.0989ZM0 0.61084H4.0875L5.2625 3.17185H23.75C24.0815 3.17185 24.3995 3.30676 24.6339 3.54691C24.8683 3.78705 25 4.11275 25 4.45236C25 4.67005 24.9375 4.88773 24.85 5.09261L20.375 13.3775C19.95 14.1586 19.125 14.6964 18.1875 14.6964H8.875L7.75 16.7836L7.7125 16.9373C7.7125 17.0222 7.74542 17.1036 7.80403 17.1637C7.86263 17.2237 7.94212 17.2574 8.025 17.2574H22.5V19.8184H7.5C6.83696 19.8184 6.20107 19.5486 5.73223 19.0683C5.26339 18.5881 5 17.9367 5 17.2574C5 16.8093 5.1125 16.3867 5.3 16.0281L7 12.8909L2.5 3.17185H0V0.61084ZM7.5 21.0989C8.16304 21.0989 8.79893 21.3688 9.26777 21.8491C9.73661 22.3293 10 22.9807 10 23.66C10 24.3392 9.73661 24.9906 9.26777 25.4709C8.79893 25.9512 8.16304 26.221 7.5 26.221C6.83696 26.221 6.20107 25.9512 5.73223 25.4709C5.26339 24.9906 5 24.3392 5 23.66C5 22.2386 6.1125 21.0989 7.5 21.0989ZM18.75 12.1354L22.225 5.73287H6.425L9.375 12.1354H18.75Z" fill="#252525"/>
</svg>
