<svg width="87" height="52" viewBox="0 0 87 52" fill="none" xmlns="http://www.w3.org/2000/svg">
<g filter="url(#filter0_d_830_633)">
<path d="M10 25C10 16.1634 17.1634 9 26 9L91 9L91 41L26 41C17.1634 41 10 33.8366 10 25Z" fill="#E80F0F"/>
</g>
<path d="M23 25V17M37 33V30M23 33V29M37 26V17M30 20V17M30 33V24" stroke="white" stroke-linecap="round"/>
<path d="M23 29C24.1046 29 25 28.1046 25 27C25 25.8954 24.1046 25 23 25C21.8954 25 21 25.8954 21 27C21 28.1046 21.8954 29 23 29Z" stroke="white" stroke-linecap="round"/>
<path d="M30 24C31.1046 24 32 23.1046 32 22C32 20.8954 31.1046 20 30 20C28.8954 20 28 20.8954 28 22C28 23.1046 28.8954 24 30 24Z" stroke="white" stroke-linecap="round"/>
<path d="M37 30C38.1046 30 39 29.1046 39 28C39 26.8954 38.1046 26 37 26C35.8954 26 35 26.8954 35 28C35 29.1046 35.8954 30 37 30Z" stroke="white" stroke-linecap="round"/>
<path d="M47.392 29C47.312 29 47.248 28.976 47.2 28.928C47.152 28.88 47.128 28.816 47.128 28.736V20.876C47.128 20.788 47.152 20.72 47.2 20.672C47.248 20.624 47.312 20.6 47.392 20.6H52.024C52.112 20.6 52.18 20.624 52.228 20.672C52.276 20.72 52.3 20.788 52.3 20.876V21.056C52.3 21.136 52.276 21.2 52.228 21.248C52.18 21.296 52.112 21.32 52.024 21.32H47.884V24.548H51.784C51.872 24.548 51.94 24.572 51.988 24.62C52.036 24.668 52.06 24.736 52.06 24.824V25.004C52.06 25.084 52.036 25.148 51.988 25.196C51.94 25.244 51.872 25.268 51.784 25.268H47.884V28.736C47.884 28.816 47.86 28.88 47.812 28.928C47.764 28.976 47.696 29 47.608 29H47.392ZM53.8923 29C53.8123 29 53.7483 28.976 53.7003 28.928C53.6523 28.88 53.6283 28.816 53.6283 28.736V23.024C53.6283 22.944 53.6523 22.88 53.7003 22.832C53.7483 22.784 53.8123 22.76 53.8923 22.76H54.0963C54.1763 22.76 54.2403 22.784 54.2883 22.832C54.3363 22.88 54.3603 22.944 54.3603 23.024V28.736C54.3603 28.816 54.3363 28.88 54.2883 28.928C54.2403 28.976 54.1763 29 54.0963 29H53.8923ZM53.7603 21.476C53.6803 21.476 53.6163 21.452 53.5683 21.404C53.5203 21.356 53.4963 21.292 53.4963 21.212V20.756C53.4963 20.676 53.5203 20.612 53.5683 20.564C53.6163 20.508 53.6803 20.48 53.7603 20.48H54.2163C54.2963 20.48 54.3603 20.508 54.4083 20.564C54.4643 20.612 54.4923 20.676 54.4923 20.756V21.212C54.4923 21.292 54.4643 21.356 54.4083 21.404C54.3603 21.452 54.2963 21.476 54.2163 21.476H53.7603ZM56.5761 29C56.4961 29 56.4321 28.976 56.3841 28.928C56.3361 28.88 56.3121 28.816 56.3121 28.736V20.744C56.3121 20.664 56.3361 20.6 56.3841 20.552C56.4321 20.504 56.4961 20.48 56.5761 20.48H56.7801C56.8601 20.48 56.9241 20.504 56.9721 20.552C57.0201 20.6 57.0441 20.664 57.0441 20.744V28.736C57.0441 28.816 57.0201 28.88 56.9721 28.928C56.9241 28.976 56.8601 29 56.7801 29H56.5761ZM61.0954 29C60.6794 29 60.3514 28.912 60.1114 28.736C59.8714 28.56 59.7034 28.32 59.6074 28.016C59.5114 27.712 59.4634 27.372 59.4634 26.996V23.456H58.5274C58.4474 23.456 58.3834 23.432 58.3354 23.384C58.2874 23.336 58.2634 23.272 58.2634 23.192V23.024C58.2634 22.944 58.2874 22.88 58.3354 22.832C58.3834 22.784 58.4474 22.76 58.5274 22.76H59.4634V20.744C59.4634 20.664 59.4874 20.6 59.5354 20.552C59.5834 20.504 59.6474 20.48 59.7274 20.48H59.9314C60.0114 20.48 60.0754 20.504 60.1234 20.552C60.1714 20.6 60.1954 20.664 60.1954 20.744V22.76H61.6834C61.7634 22.76 61.8274 22.784 61.8754 22.832C61.9234 22.88 61.9474 22.944 61.9474 23.024V23.192C61.9474 23.272 61.9234 23.336 61.8754 23.384C61.8274 23.432 61.7634 23.456 61.6834 23.456H60.1954V26.948C60.1954 27.372 60.2634 27.704 60.3994 27.944C60.5434 28.184 60.7954 28.304 61.1554 28.304H61.8034C61.8834 28.304 61.9474 28.328 61.9954 28.376C62.0434 28.424 62.0674 28.488 62.0674 28.568V28.736C62.0674 28.816 62.0434 28.88 61.9954 28.928C61.9474 28.976 61.8834 29 61.8034 29H61.0954ZM65.6239 29.12C64.8479 29.12 64.2319 28.868 63.7759 28.364C63.3199 27.852 63.0599 27.184 62.9959 26.36C62.9879 26.24 62.9839 26.08 62.9839 25.88C62.9839 25.68 62.9879 25.52 62.9959 25.4C63.0359 24.856 63.1639 24.376 63.3799 23.96C63.5959 23.544 63.8919 23.22 64.2679 22.988C64.6519 22.756 65.1039 22.64 65.6239 22.64C66.1839 22.64 66.6599 22.764 67.0519 23.012C67.4439 23.26 67.7439 23.616 67.9519 24.08C68.1679 24.544 68.2759 25.096 68.2759 25.736V25.916C68.2759 25.996 68.2479 26.06 68.1919 26.108C68.1439 26.156 68.0799 26.18 67.9999 26.18H63.7279C63.7279 26.18 63.7279 26.196 63.7279 26.228C63.7279 26.26 63.7279 26.284 63.7279 26.3C63.7439 26.66 63.8279 27.004 63.9799 27.332C64.1319 27.652 64.3479 27.916 64.6279 28.124C64.9079 28.324 65.2399 28.424 65.6239 28.424C65.9679 28.424 66.2519 28.372 66.4759 28.268C66.7079 28.164 66.8919 28.052 67.0279 27.932C67.1639 27.804 67.2519 27.708 67.2919 27.644C67.3639 27.54 67.4199 27.48 67.4599 27.464C67.4999 27.44 67.5639 27.428 67.6519 27.428H67.8439C67.9159 27.428 67.9759 27.452 68.0239 27.5C68.0799 27.54 68.1039 27.596 68.0959 27.668C68.0879 27.78 68.0239 27.92 67.9039 28.088C67.7919 28.248 67.6279 28.408 67.4119 28.568C67.2039 28.728 66.9479 28.86 66.6439 28.964C66.3399 29.068 65.9999 29.12 65.6239 29.12ZM63.7279 25.508H67.5439V25.46C67.5439 25.06 67.4679 24.7 67.3159 24.38C67.1639 24.06 66.9439 23.808 66.6559 23.624C66.3679 23.432 66.0239 23.336 65.6239 23.336C65.2239 23.336 64.8799 23.432 64.5919 23.624C64.3119 23.808 64.0959 24.06 63.9439 24.38C63.7999 24.7 63.7279 25.06 63.7279 25.46V25.508ZM70.1227 29C70.0427 29 69.9787 28.976 69.9307 28.928C69.8827 28.88 69.8587 28.816 69.8587 28.736V23.036C69.8587 22.956 69.8827 22.892 69.9307 22.844C69.9787 22.788 70.0427 22.76 70.1227 22.76H70.3147C70.3947 22.76 70.4587 22.788 70.5067 22.844C70.5627 22.892 70.5907 22.956 70.5907 23.036V23.588C70.7347 23.308 70.9427 23.1 71.2147 22.964C71.4867 22.828 71.8227 22.76 72.2227 22.76H72.6667C72.7467 22.76 72.8107 22.784 72.8587 22.832C72.9067 22.88 72.9307 22.944 72.9307 23.024V23.192C72.9307 23.272 72.9067 23.336 72.8587 23.384C72.8107 23.432 72.7467 23.456 72.6667 23.456H72.1507C71.6707 23.456 71.2907 23.596 71.0107 23.876C70.7307 24.156 70.5907 24.536 70.5907 25.016V28.736C70.5907 28.816 70.5627 28.88 70.5067 28.928C70.4587 28.976 70.3947 29 70.3147 29H70.1227Z" fill="white"/>
<defs>
<filter id="filter0_d_830_633" x="0" y="0" width="101" height="52" filterUnits="userSpaceOnUse" color-interpolation-filters="sRGB">
<feFlood flood-opacity="0" result="BackgroundImageFix"/>
<feColorMatrix in="SourceAlpha" type="matrix" values="0 0 0 0 0 0 0 0 0 0 0 0 0 0 0 0 0 0 127 0" result="hardAlpha"/>
<feOffset dy="1"/>
<feGaussianBlur stdDeviation="5"/>
<feComposite in2="hardAlpha" operator="out"/>
<feColorMatrix type="matrix" values="0 0 0 0 0 0 0 0 0 0 0 0 0 0 0 0 0 0 0.25 0"/>
<feBlend mode="normal" in2="BackgroundImageFix" result="effect1_dropShadow_830_633"/>
<feBlend mode="normal" in="SourceGraphic" in2="effect1_dropShadow_830_633" result="shape"/>
</filter>
</defs>
</svg>
