<svg width="30" height="32" viewBox="0 0 30 32" fill="none" xmlns="http://www.w3.org/2000/svg">
<path d="M28.2309 23.2583C27.8924 23.0071 27.4984 22.8347 27.0794 22.7545C26.6604 22.6744 26.2279 22.6887 25.8156 22.7963L20.2264 24.0347C20.4096 23.5662 20.4722 23.0618 20.4088 22.5648C20.3454 22.0679 20.1579 21.5931 19.8623 21.1814C19.5668 20.7696 19.172 20.433 18.7119 20.2006C18.2518 19.9681 17.74 19.8467 17.2206 19.8467H11.0359C10.549 19.8454 10.0667 19.9372 9.61685 20.1169C9.16705 20.2965 8.75871 20.5605 8.41552 20.8934L5.54805 23.6572H1.90101C1.44229 23.6572 1.00235 23.8329 0.677982 24.1455C0.353615 24.4582 0.171387 24.8822 0.171387 25.3243V30.0875C0.171387 30.5297 0.353615 30.9537 0.677982 31.2663C1.00235 31.579 1.44229 31.7546 1.90101 31.7546H14.7497C14.8105 31.7546 14.871 31.7474 14.93 31.7332L22.8369 29.8279C22.8743 29.8184 22.911 29.8064 22.9468 29.7922L27.7429 27.825L27.7836 27.8072C28.2077 27.603 28.5708 27.2982 28.8389 26.9215C29.1069 26.5447 29.2711 26.1083 29.3158 25.6535C29.3606 25.1987 29.2844 24.7404 29.0946 24.3218C28.9048 23.9031 28.6075 23.538 28.2309 23.2607V23.2583ZM1.65392 30.0875V25.3243C1.65392 25.2612 1.67996 25.2006 1.72629 25.1559C1.77263 25.1113 1.83548 25.0862 1.90101 25.0862H5.11317V30.3257H1.90101C1.83548 30.3257 1.77263 30.3006 1.72629 30.2559C1.67996 30.2113 1.65392 30.1507 1.65392 30.0875ZM27.1387 26.5151L22.4193 28.4526L14.6582 30.3257H6.59571V24.6682L9.46318 21.9032C9.66924 21.7035 9.91435 21.5453 10.1843 21.4375C10.4543 21.3298 10.7437 21.2748 11.0359 21.2756H17.2206C17.6793 21.2756 18.1192 21.4513 18.4436 21.7639C18.768 22.0766 18.9502 22.5006 18.9502 22.9428C18.9502 23.3849 18.768 23.8089 18.4436 24.1216C18.1192 24.4342 17.6793 24.6099 17.2206 24.6099H13.7613C13.5647 24.6099 13.3762 24.6851 13.2371 24.8191C13.0981 24.9531 13.02 25.1349 13.02 25.3243C13.02 25.5138 13.0981 25.6956 13.2371 25.8296C13.3762 25.9635 13.5647 26.0388 13.7613 26.0388H17.7147C17.7704 26.0389 17.826 26.0329 17.8803 26.021L26.1578 24.1859L26.1874 24.1788C26.499 24.0969 26.8309 24.1289 27.1195 24.2686C27.4081 24.4082 27.633 24.6457 27.7509 24.9355C27.8689 25.2252 27.8717 25.5467 27.7587 25.8383C27.6457 26.1299 27.4249 26.3709 27.1387 26.5151Z" fill="black"/>
<path d="M0.171473 12.9145L17.0441 12.9145M4.38964 12.9145L4.38964 16.6044M8.60781 12.9145L8.60781 16.6044M18.626 16.1432C17.6471 15.2869 17.0971 14.1255 17.0971 12.9145C17.0971 11.7036 17.6471 10.5422 18.626 9.6859C19.6048 8.82961 20.9325 8.34856 22.3169 8.34856C23.7012 8.34856 25.0289 8.82961 26.0077 9.6859C26.9866 10.5422 27.5366 11.7036 27.5366 12.9145C27.5366 14.1255 26.9866 15.2869 26.0077 16.1432C25.0289 16.9995 23.7012 17.4805 22.3169 17.4805C20.9325 17.4805 19.6048 16.9995 18.626 16.1432Z" stroke="black" stroke-width="1.29916"/>
</svg>
