<svg width="27" height="24" viewBox="0 0 27 24" fill="none" xmlns="http://www.w3.org/2000/svg">
<path d="M23.7675 9.44637C23.7675 9.20389 23.6603 8.97135 23.4695 8.7999C23.2787 8.62844 23.0198 8.53212 22.75 8.53212C22.4801 8.53212 22.2213 8.62844 22.0305 8.7999C21.8397 8.97135 21.7325 9.20389 21.7325 9.44637H23.7675ZM4.7738 9.44637C4.7738 9.20389 4.6666 8.97135 4.47578 8.7999C4.28496 8.62844 4.02615 8.53212 3.75629 8.53212C3.48642 8.53212 3.22761 8.62844 3.03679 8.7999C2.84597 8.97135 2.73877 9.20389 2.73877 9.44637H4.7738ZM24.7443 12.5304C24.8375 12.6202 24.9498 12.6923 25.0746 12.7422C25.1994 12.7922 25.3342 12.8191 25.4708 12.8212C25.6074 12.8234 25.7431 12.8008 25.8698 12.7549C25.9965 12.7089 26.1116 12.6404 26.2082 12.5536C26.3049 12.4668 26.381 12.3634 26.4322 12.2496C26.4834 12.1357 26.5085 12.0138 26.5061 11.891C26.5037 11.7683 26.4738 11.6472 26.4182 11.5351C26.3626 11.4229 26.2824 11.322 26.1824 11.2383L24.7443 12.5304ZM13.2531 0.913438L13.9722 0.267373C13.7814 0.0961656 13.5228 0 13.2531 0C12.9835 0 12.7249 0.0961656 12.5341 0.267373L13.2531 0.913438ZM0.323854 11.2383C0.223884 11.322 0.1437 11.4229 0.0880866 11.5351C0.0324731 11.6472 0.0025689 11.7683 0.000158355 11.891C-0.0022522 12.0138 0.02288 12.1357 0.0740559 12.2496C0.125232 12.3634 0.201403 12.4668 0.298025 12.5536C0.394646 12.6404 0.50974 12.7089 0.636439 12.7549C0.763138 12.8008 0.898847 12.8234 1.03547 12.8212C1.17209 12.8191 1.30683 12.7922 1.43164 12.7422C1.55646 12.6923 1.66879 12.6202 1.76195 12.5304L0.323854 11.2383ZM6.46967 23.7695H20.0366V21.941H6.46967V23.7695ZM23.7675 20.4173V9.44637H21.7325V20.4173H23.7675ZM4.7738 20.4173V9.44637H2.73877V20.4173H4.7738ZM26.1824 11.2383L13.9722 0.267373L12.5341 1.5595L24.7443 12.5304L26.1824 11.2383ZM12.5341 0.267373L0.323854 11.2383L1.76195 12.5304L13.9722 1.5595L12.5341 0.267373ZM20.0366 23.7695C21.0261 23.7695 21.9751 23.4163 22.6747 22.7877C23.3744 22.159 23.7675 21.3063 23.7675 20.4173H21.7325C21.7325 21.2584 20.9727 21.941 20.0366 21.941V23.7695ZM6.46967 21.941C5.53355 21.941 4.7738 21.2584 4.7738 20.4173H2.73877C2.73877 21.3063 3.13184 22.159 3.83152 22.7877C4.5312 23.4163 5.48017 23.7695 6.46967 23.7695V21.941Z" fill="black"/>
</svg>
