<svg width="29" height="24" viewBox="0 0 29 24" fill="none" xmlns="http://www.w3.org/2000/svg">
<path d="M5.99469 0.537181C6.15506 0.368713 6.35415 0.23346 6.57826 0.140728C6.80237 0.0479957 7.04617 -1.45816e-05 7.2929 3.32204e-09H21.8808C22.1275 -1.45816e-05 22.3713 0.0479957 22.5954 0.140728C22.8195 0.23346 23.0186 0.368713 23.179 0.537181L27.6356 5.20912C28.0335 5.62633 28.2523 6.15765 28.2523 6.70709V7.09846C28.2524 7.85815 27.9883 8.59889 27.497 9.21714C27.0056 9.83539 26.3116 10.3003 25.5118 10.5468C24.7121 10.7933 23.8466 10.8091 23.0363 10.5921C22.226 10.375 21.5115 9.93596 20.9925 9.33621C20.6135 9.77481 20.1279 10.1297 19.5727 10.3736C19.0176 10.6176 18.4077 10.7441 17.7897 10.7436C17.1717 10.7442 16.5617 10.6177 16.0065 10.3738C15.4514 10.1298 14.9657 9.77489 14.5868 9.33621C14.208 9.77489 13.7223 10.1298 13.1671 10.3738C12.612 10.6177 12.002 10.7442 11.384 10.7436C10.766 10.7442 10.156 10.6177 9.60086 10.3738C9.04569 10.1298 8.56005 9.77489 8.18116 9.33621C7.6622 9.93596 6.94765 10.375 6.13738 10.5921C5.32712 10.8091 4.46162 10.7933 3.66186 10.5468C2.86211 10.3003 2.16806 9.83539 1.67671 9.21714C1.18537 8.59889 0.921293 7.85815 0.921387 7.09846V6.70709C0.921408 6.15765 1.14013 5.62633 1.53804 5.20912L5.99639 0.535646L5.99469 0.537181ZM9.03525 7.09846C9.03525 7.65816 9.28271 8.19494 9.72318 8.59071C10.1637 8.98648 10.7611 9.20882 11.384 9.20882C12.0069 9.20882 12.6043 8.98648 13.0448 8.59071C13.4853 8.19494 13.7327 7.65816 13.7327 7.09846C13.7327 6.89494 13.8227 6.69975 13.9829 6.55583C14.1431 6.41191 14.3603 6.33106 14.5868 6.33106C14.8134 6.33106 15.0306 6.41191 15.1908 6.55583C15.3509 6.69975 15.4409 6.89494 15.4409 7.09846C15.4409 7.65816 15.6884 8.19494 16.1289 8.59071C16.5693 8.98648 17.1668 9.20882 17.7897 9.20882C18.4126 9.20882 19.01 8.98648 19.4505 8.59071C19.891 8.19494 20.1384 7.65816 20.1384 7.09846C20.1384 6.89494 20.2284 6.69975 20.3886 6.55583C20.5488 6.41191 20.766 6.33106 20.9925 6.33106C21.219 6.33106 21.4363 6.41191 21.5965 6.55583C21.7566 6.69975 21.8466 6.89494 21.8466 7.09846C21.8466 7.65816 22.0941 8.19494 22.5345 8.59071C22.975 8.98648 23.5724 9.20882 24.1954 9.20882C24.8183 9.20882 25.4157 8.98648 25.8562 8.59071C26.2967 8.19494 26.5441 7.65816 26.5441 7.09846V6.70709C26.5441 6.52418 26.4714 6.34729 26.3391 6.20828L21.8808 1.5348H7.2929L2.83455 6.20828C2.70225 6.34729 2.62955 6.52418 2.62957 6.70709V7.09846C2.62957 7.65816 2.87703 8.19494 3.3175 8.59071C3.75798 8.98648 4.35539 9.20882 4.97832 9.20882C5.60124 9.20882 6.19866 8.98648 6.63913 8.59071C7.07961 8.19494 7.32707 7.65816 7.32707 7.09846C7.32707 6.89494 7.41705 6.69975 7.57723 6.55583C7.7374 6.41191 7.95464 6.33106 8.18116 6.33106C8.40768 6.33106 8.62492 6.41191 8.78509 6.55583C8.94526 6.69975 9.03525 6.89494 9.03525 7.09846ZM3.48366 11.511C3.71018 11.511 3.92742 11.5919 4.08759 11.7358C4.24777 11.8797 4.33775 12.0749 4.33775 12.2784V21.4872H6.04593V13.8132C6.04593 13.4062 6.2259 13.0158 6.54625 12.728C6.86659 12.4401 7.30107 12.2784 7.75411 12.2784H12.8787C13.3317 12.2784 13.7662 12.4401 14.0865 12.728C14.4069 13.0158 14.5868 13.4062 14.5868 13.8132V21.4872H24.8359V12.2784C24.8359 12.0749 24.9259 11.8797 25.0861 11.7358C25.2463 11.5919 25.4635 11.511 25.69 11.511C25.9165 11.511 26.1338 11.5919 26.294 11.7358C26.4541 11.8797 26.5441 12.0749 26.5441 12.2784V21.4872H27.3982C27.6247 21.4872 27.842 21.5681 28.0021 21.712C28.1623 21.8559 28.2523 22.0511 28.2523 22.2546C28.2523 22.4582 28.1623 22.6534 28.0021 22.7973C27.842 22.9412 27.6247 23.022 27.3982 23.022H1.77548C1.54896 23.022 1.33172 22.9412 1.17154 22.7973C1.01137 22.6534 0.921387 22.4582 0.921387 22.2546C0.921387 22.0511 1.01137 21.8559 1.17154 21.712C1.33172 21.5681 1.54896 21.4872 1.77548 21.4872H2.62957V12.2784C2.62957 12.0749 2.71955 11.8797 2.87973 11.7358C3.0399 11.5919 3.25714 11.511 3.48366 11.511ZM7.75411 21.4872H12.8787V13.8132H7.75411V21.4872ZM16.295 13.8132C16.295 13.4062 16.475 13.0158 16.7953 12.728C17.1157 12.4401 17.5502 12.2784 18.0032 12.2784H21.4196C21.8726 12.2784 22.3071 12.4401 22.6274 12.728C22.9478 13.0158 23.1277 13.4062 23.1277 13.8132V18.4176C23.1277 18.8247 22.9478 19.2151 22.6274 19.5029C22.3071 19.7907 21.8726 19.9524 21.4196 19.9524H18.0032C17.5502 19.9524 17.1157 19.7907 16.7953 19.5029C16.475 19.2151 16.295 18.8247 16.295 18.4176V13.8132ZM21.4196 13.8132H18.0032V18.4176H21.4196V13.8132Z" fill="black"/>
</svg>
