<svg width="35" height="36" viewBox="0 0 35 36" fill="none" xmlns="http://www.w3.org/2000/svg">
<path d="M16.337 35.4317L15.8584 35.6347C14.7513 36.1043 13.2487 35.7978 12.4017 34.9303L12.0354 34.5551C11.5646 34.0729 10.5518 33.6433 9.88639 33.6433L9.36846 33.6432C8.1702 33.6431 6.89638 32.7709 6.4379 31.6373L6.23963 31.1471C5.98479 30.5171 5.20964 29.7232 4.59489 29.4622L4.11637 29.2591C3.00937 28.7893 2.15841 27.4841 2.15828 26.2571L2.15823 25.7265C2.15816 25.0445 1.73856 24.0071 1.26808 23.5251L0.901876 23.1499C0.0546631 22.2818 -0.243984 20.7423 0.214265 19.6087L0.412438 19.1185C0.667147 18.4884 0.667023 17.3655 0.412438 16.7357L0.214265 16.2454C-0.244176 15.1113 0.0550177 13.572 0.901876 12.7043L1.26808 12.3291C1.73879 11.8468 2.15816 10.8093 2.15823 10.1277L2.15828 9.59706C2.15841 8.36955 3.00983 7.06468 4.11637 6.59501L4.59489 6.39191C5.20994 6.13086 5.98492 5.33677 6.23963 4.70702L6.4379 4.21684C6.89657 3.08281 8.1707 2.21106 9.36846 2.21093L9.88639 2.21088C10.5521 2.21081 11.5648 1.78099 12.0354 1.29903L12.4017 0.923877C13.2491 0.0559877 14.7518 -0.249936 15.8584 0.219497L16.337 0.422494C16.9521 0.683419 18.0482 0.683292 18.663 0.422494L19.1416 0.219497C20.2487 -0.250133 21.7513 0.056351 22.5983 0.923877L22.9646 1.29903C23.4354 1.78123 24.4482 2.21081 25.1136 2.21088L25.6315 2.21093C26.8298 2.21106 28.1036 3.08329 28.5621 4.21684L28.7604 4.70702C29.0152 5.33708 29.7904 6.13098 30.4051 6.39191L30.8836 6.59501C31.9906 7.06488 32.8416 8.37006 32.8417 9.59706L32.8418 10.1277C32.8418 10.8097 33.2614 11.847 33.7319 12.3291L34.0981 12.7043C34.9453 13.5724 35.244 15.1118 34.7857 16.2454L34.5876 16.7357C34.3329 17.3658 34.333 18.4887 34.5876 19.1185L34.7857 19.6087C35.2442 20.7428 34.945 22.2821 34.0981 23.1499L33.7319 23.5251C33.2612 24.0074 32.8418 25.0448 32.8418 25.7265L32.8417 26.2571C32.8416 27.4846 31.9902 28.7895 30.8836 29.2591L30.4051 29.4622C29.7901 29.7233 29.0151 30.5174 28.7604 31.1471L28.5621 31.6373C28.1034 32.7713 26.8293 33.6431 25.6315 33.6432L25.1136 33.6433C24.4479 33.6433 23.4352 34.0732 22.9646 34.5551L22.5983 34.9303C21.7509 35.7982 20.2482 36.1041 19.1416 35.6347L18.663 35.4317C18.0479 35.1707 16.9518 35.1709 16.337 35.4317ZM19.75 34.1294C20.2626 34.3468 21.0814 34.1801 21.4738 33.7781L21.8401 33.403C22.6089 32.6156 24.0259 32.0141 25.1134 32.014L25.6314 32.014C26.1861 32.0139 26.8803 31.5389 27.0928 31.0137L27.291 30.5235C27.7071 29.4947 28.7916 28.3835 29.7963 27.9571L30.2748 27.754C30.7873 27.5364 31.2512 26.8255 31.2513 26.2569L31.2513 25.7263C31.2515 24.6127 31.8383 23.161 32.6072 22.3732L32.9734 21.9979C33.3656 21.5961 33.5286 20.7573 33.3163 20.232L33.1181 19.7418C32.7022 18.7129 32.7021 17.1417 33.1181 16.1124L33.3163 15.6221C33.5285 15.0971 33.3658 14.2583 32.9734 13.8562L32.6072 13.481C31.8386 12.6935 31.2515 11.2419 31.2513 10.1278L31.2513 9.59723C31.2512 9.02896 30.7876 8.31781 30.2748 8.10018L29.7963 7.89707C28.7921 7.47081 27.7073 6.35987 27.291 5.33067L27.0928 4.84047C26.8804 4.31548 26.1864 3.84024 25.6314 3.84018L25.1134 3.84013C24.0264 3.84001 22.6092 3.23887 21.8401 2.4512L21.4738 2.07604C21.0816 1.67426 20.2628 1.50727 19.75 1.72479L19.2715 1.92779C18.2671 2.35383 16.7333 2.35401 15.7285 1.92779L15.25 1.72479C14.7374 1.50738 13.9186 1.67406 13.5262 2.07604L13.1599 2.4512C12.3911 3.23854 10.9741 3.84001 9.88658 3.84013L9.36861 3.84018C8.81388 3.84024 8.11968 4.31522 7.90723 4.84047L7.70896 5.33067C7.29286 6.35944 6.20836 7.47063 5.20368 7.89707L4.72516 8.10018C4.21268 8.3177 3.74877 9.02868 3.74871 9.59723L3.74866 10.1278C3.74855 11.2414 3.16171 12.6932 2.39281 13.481L2.0266 13.8562C1.63439 14.2581 1.47136 15.0968 1.68369 15.6221L1.88187 16.1124C2.29776 17.1412 2.29794 18.7125 1.88187 19.7418L1.68369 20.232C1.47146 20.7571 1.6342 21.5959 2.0266 21.9979L2.39281 22.3732C3.16139 23.1607 3.74855 24.6123 3.74866 25.7263L3.74871 26.2569C3.74877 26.8252 4.21243 27.5363 4.72516 27.754L5.20368 27.9571C6.20795 28.3833 7.29269 29.4943 7.70896 30.5235L7.90723 31.0137C8.11957 31.5387 8.8136 32.0139 9.36861 32.014L9.88658 32.014C10.9736 32.0141 12.3908 32.6153 13.1599 33.403L13.5262 33.7781C13.9185 34.1799 14.7372 34.3469 15.25 34.1294L15.7285 33.9264C16.7329 33.5003 18.2667 33.5001 19.2715 33.9264L19.75 34.1294ZM10.1102 26.6493L8.98551 25.4973L24.8883 9.20485L26.0129 10.3568L10.1102 26.6493ZM12.7287 16.2978C10.972 16.2978 9.54785 14.839 9.54785 13.0393C9.54785 11.2397 10.972 9.78085 12.7287 9.78085C14.4855 9.78085 15.9096 11.2397 15.9096 13.0393C15.9096 14.839 14.4855 16.2978 12.7287 16.2978ZM12.7287 14.6686C13.6071 14.6686 14.3191 13.9391 14.3191 13.0393C14.3191 12.1395 13.6071 11.4101 12.7287 11.4101C11.8503 11.4101 11.1383 12.1395 11.1383 13.0393C11.1383 13.9391 11.8503 14.6686 12.7287 14.6686ZM22.2713 26.0733C20.5146 26.0733 19.0904 24.6144 19.0904 22.8148C19.0904 21.0152 20.5146 19.5563 22.2713 19.5563C24.028 19.5563 25.4522 21.0152 25.4522 22.8148C25.4522 24.6144 24.028 26.0733 22.2713 26.0733ZM22.2713 24.4441C23.1497 24.4441 23.8617 23.7146 23.8617 22.8148C23.8617 21.915 23.1497 21.1856 22.2713 21.1856C21.3929 21.1856 20.6809 21.915 20.6809 22.8148C20.6809 23.7146 21.3929 24.4441 22.2713 24.4441Z" fill="black"/>
</svg>
