<svg width="40" height="44" viewBox="0 0 40 44" fill="none" xmlns="http://www.w3.org/2000/svg">
<g filter="url(#filter0_d_615_1561)">
<path d="M13.6292 11.442V7.52627C13.6292 5.7954 14.3004 4.13541 15.4952 2.9115C16.6899 1.68759 18.3104 1 20 1C21.6896 1 23.3101 1.68759 24.5048 2.9115C25.6996 4.13541 26.3708 5.7954 26.3708 7.52627V11.442M34.9841 32.0389C35.0242 32.4052 34.9882 32.776 34.8784 33.1269C34.7686 33.4779 34.5875 33.801 34.347 34.0751C34.1059 34.3488 33.8109 34.5671 33.4815 34.7156C33.1521 34.8641 32.7957 34.9394 32.4358 34.9366H7.56422C7.20433 34.9394 6.84794 34.8641 6.51852 34.7156C6.18909 34.5671 5.89411 34.3488 5.65298 34.0751C5.4125 33.801 5.2314 33.4779 5.1216 33.1269C5.0118 32.776 4.97577 32.4052 5.01591 32.0389L7.25842 11.442H32.7416L34.9841 32.0389Z" stroke="white" stroke-width="2" stroke-linecap="round" stroke-linejoin="round" shape-rendering="crispEdges"/>
</g>
<defs>
<filter id="filter0_d_615_1561" x="0" y="0" width="40" height="43.9365" filterUnits="userSpaceOnUse" color-interpolation-filters="sRGB">
<feFlood flood-opacity="0" result="BackgroundImageFix"/>
<feColorMatrix in="SourceAlpha" type="matrix" values="0 0 0 0 0 0 0 0 0 0 0 0 0 0 0 0 0 0 127 0" result="hardAlpha"/>
<feOffset dy="4"/>
<feGaussianBlur stdDeviation="2"/>
<feComposite in2="hardAlpha" operator="out"/>
<feColorMatrix type="matrix" values="0 0 0 0 0 0 0 0 0 0 0 0 0 0 0 0 0 0 0.25 0"/>
<feBlend mode="normal" in2="BackgroundImageFix" result="effect1_dropShadow_615_1561"/>
<feBlend mode="normal" in="SourceGraphic" in2="effect1_dropShadow_615_1561" result="shape"/>
</filter>
</defs>
</svg>
