<svg width="29" height="26" viewBox="0 0 29 26" fill="none" xmlns="http://www.w3.org/2000/svg">
<path d="M12.0144 11.7567L2.55304 20.2577C2.30419 20.4811 2.10678 20.7463 1.97209 21.0383C1.83739 21.3302 1.76807 21.6431 1.76807 21.9591C1.76807 22.2752 1.83739 22.5881 1.97209 22.8801C2.10678 23.172 2.30419 23.4372 2.55304 23.6606C3.05495 24.1114 3.7356 24.3647 4.44531 24.3647C5.15501 24.3647 5.83566 24.1114 6.33757 23.6606L15.7989 15.1571M21.5734 15.596L26.7631 20.2589C27.2648 20.7099 27.5467 21.3215 27.5467 21.9591C27.5467 22.5968 27.2648 23.2084 26.7631 23.6594C26.2612 24.1102 25.5805 24.3635 24.8708 24.3635C24.1611 24.3635 23.4805 24.1102 22.9785 23.6594L14.6694 16.1948M7.57544 6.10181L4.73437 6.95071L1.8973 2.7002L3.78957 1L8.52157 3.5503L7.57544 6.10181ZM7.57544 6.10181L11.3626 9.50462" stroke="black" stroke-width="1.76064" stroke-linecap="round" stroke-linejoin="round"/>
<path d="M12.0146 11.7567C10.8852 9.16791 11.106 5.77111 13.4345 3.67892C15.763 1.58673 20.0588 1.12862 22.4234 2.40437L18.3552 6.05969L17.9765 9.80038L22.1397 9.4613L26.208 5.80478C27.6292 7.93063 27.118 11.7904 24.7894 13.8813C22.4609 15.9735 18.6817 16.1719 15.8005 15.1571" stroke="black" stroke-width="1.76064" stroke-linecap="round" stroke-linejoin="round"/>
</svg>
