<svg width="37" height="38" viewBox="0 0 37 38" fill="none" xmlns="http://www.w3.org/2000/svg">
<path d="M13.25 33.2688H8C6.14349 33.2688 4.36301 32.5133 3.05025 31.1685C1.7375 29.8237 1 27.9998 1 26.0979V9.96355C1 8.06172 1.7375 6.23779 3.05025 4.893C4.36301 3.54821 6.14349 2.79271 8 2.79271H27.25C29.1065 2.79271 30.887 3.54821 32.1998 4.893C33.5125 6.23779 34.25 8.06172 34.25 9.96355V15.3417M11.5 1V4.58542M23.75 1V4.58542M1 11.7563H34.25M29.875 25.4579L27.25 28.147" stroke="#252525" stroke-width="2" stroke-linecap="round" stroke-linejoin="round"/>
<path d="M27.25 36.8543C32.0825 36.8543 36 32.8412 36 27.8908C36 22.9404 32.0825 18.9272 27.25 18.9272C22.4175 18.9272 18.5 22.9404 18.5 27.8908C18.5 32.8412 22.4175 36.8543 27.25 36.8543Z" stroke="#252525" stroke-width="2" stroke-linecap="round" stroke-linejoin="round"/>
</svg>
